<?xml version="1.0" encoding="UTF-8" standalone="no"?>
<svg
   xmlns="http://www.w3.org/2000/svg"
   width="333.33334"
   height="333.33334"
   viewBox="0 0 333.33334 333.33334"
   >
  <g>
    <path
       style="fill:#ecdac1;stroke:#ecdac1;stroke-width:0.5;fill-opacity:1;stroke-miterlimit:4;stroke-dasharray:none;opacity:0.999"
       d="m 222.16411,172.71083 63.58589,-0.0858 45.6875,80.0625 -46.51766,79.34333 L 192.375,331.81253 147.34338,251.46488 179.5,197.12503 c 3.42319,1.38099 7.13233,2.04852 10.82221,1.94766 2.66445,-0.0728 5.31767,-0.54368 7.84447,-1.39212 l 36.27082,62.69446 c -4.74931,5.00112 -7.33991,11.98649 -7,18.875 0.22311,4.52156 1.67281,8.97491 4.14241,12.76902 2.4696,3.79412 5.95166,6.92043 9.98259,8.98098 4.80719,2.45737 10.38751,3.37857 15.72736,2.58244 5.33984,-0.79613 10.4125,-3.30791 14.27264,-7.08244 5.50712,-5.385 8.39128,-13.33584 7.625,-21 -0.74509,-7.45227 -4.91616,-14.49256 -11.09433,-18.72596 -6.17816,-4.23341 -14.24942,-5.58182 -21.46817,-3.58654 l -35.3125,-61.875 c 3.00066,-2.11442 5.54345,-4.87519 7.40447,-8.03926 1.89235,-3.21732 3.07732,-6.8482 3.44714,-10.56241 z"
       /> 
   <path
       style="fill:#ecdac1;stroke:#ecdac1;stroke-width:0.5;fill-opacity:1;stroke-miterlimit:4;stroke-dasharray:none;opacity:0.999"
       d="m 223.54321,161.64164 63.58589,0.0858 45.6875,-80.062498 -46.51766,-79.3433296 -92.54484,0.21833 -45.03162,80.3476496 32.15662,54.339848 c 3.42319,-1.38099 7.13233,-2.04852 10.82221,-1.94766 2.66445,0.0728 5.31767,0.54368 7.84447,1.39212 L 235.8166,73.977442 c -4.74931,-5.001122 -7.33991,-11.986485 -7,-18.874999 0.22311,-4.521557 1.67281,-8.974907 4.14241,-12.769024 2.4696,-3.794118 5.95166,-6.920423 9.98259,-8.980976 4.80719,-2.457368 10.38751,-3.378574 15.72736,-2.58244 5.33984,0.796135 10.4125,3.307906 14.27264,7.08244 5.50712,5.384996 8.39128,13.335837 7.625,21 -0.74509,7.452269 -4.91616,14.492556 -11.09433,18.725963 -6.17816,4.233407 -14.24942,5.581815 -21.46817,3.586536 l -35.3125,61.874998 c 3.00066,2.11442 5.54345,4.87519 7.40447,8.03926 1.89235,3.21732 3.07732,6.8482 3.44714,10.56241 z"
       />
   <path
       style="fill:#ecdac1;stroke:#ecdac1;stroke-width:0.5;fill-opacity:1;stroke-miterlimit:4;stroke-dasharray:none;opacity:0.999"
       d="M 170.95324,191.46731 139.23459,246.57722 47.054682,246.11251 1.6001734,166.15536 48.061683,86.118336 l 92.098907,1.175303 30.98139,55.018371 c -2.90757,2.27407 -5.34024,5.15252 -7.09783,8.39847 -1.26915,2.34389 -2.18799,4.87708 -2.71662,7.48958 l -72.430417,0.0642 c -1.956442,-6.61358 -6.710643,-12.34979 -12.846225,-15.49968 -4.02734,-2.06756 -8.608903,-3.03876 -13.129506,-2.79708 -4.520604,0.24168 -8.969094,1.69408 -12.76905,4.15469 -4.531741,2.93447 -8.11969,7.30656 -10.100139,12.32907 -1.98045,5.02251 -2.341525,10.67146 -1.00275,15.9017 1.909982,7.4618 7.353533,13.93498 14.374031,17.10344 6.826401,3.08087 15.009003,2.98876 21.764326,-0.24498 6.755322,-3.23375 11.95871,-9.54946 13.840123,-16.79872 l 71.241577,0.35597 c 0.33081,3.65586 1.45032,7.23836 3.25997,10.43209 1.84011,3.24748 4.39205,6.08913 7.42374,8.26651 z"
      />
   </g>
</svg>
