<!DOCTYPE svg PUBLIC "-//W3C//DTD SVG 1.1//EN" "http://www.w3.org/Graphics/SVG/1.1/DTD/svg11.dtd">
<svg viewbox="0 0 167.2px 44.8px" version="1.1" xmlns="http://www.w3.org/2000/svg" xmlns:xlink="http://www.w3.org/1999/xlink" x="0px" y="0px" width="167.2px"
	 height="44.8px" viewBox="0 0 167.2 44.8" enable-background="new 0 0 167.2 44.8" xml:space="preserve">
<g>
	<path fill="#0067A6" d="M56.4,25.2c1.7-0.6,3-2.3,3-4.4c0-3.4-2.4-5.4-5.9-5.4h-7.6v20.1h7.8c3.6,0,6-1.9,6-5.6
		C59.7,27.5,58.3,25.9,56.4,25.2z M48,17.3h5.2c2.2,0,4,1.1,4,3.5c0,2.4-1.7,3.5-4,3.5H48V17.3z M53.5,33.6H48v-7.4h5.5
		c2.5,0,4,1.4,4,3.7C57.5,32.1,56,33.6,53.5,33.6z"/>
	<path fill="#0067A6" d="M67,21.4c-1.7,0-3,0.6-4,1.6c-1.4,1.4-1.7,3.4-1.7,5.5s0.3,4.1,1.7,5.5c1,1,2.3,1.6,4,1.6
		c1.7,0,3-0.6,4-1.6c1.4-1.4,1.7-3.4,1.7-5.5s-0.3-4.1-1.7-5.5C70,22,68.7,21.4,67,21.4z M69.5,32.8c-0.6,0.6-1.6,1-2.5,1
		c-1,0-1.9-0.4-2.5-1c-1-1-1.1-2.7-1.1-4.3s0.1-3.3,1.1-4.3c0.6-0.6,1.5-1,2.5-1c1,0,1.9,0.4,2.5,1c1,1,1.1,2.7,1.1,4.3
		S70.5,31.8,69.5,32.8z"/>
	<path fill="#0067A6" d="M76.7,23.3v-1.7h-2v13.9h2V27c0-2.1,1.3-3.7,3.3-3.7c1.1,0,1.6,0.3,2.4,1l1.5-1.5c-1-1-2-1.3-3.3-1.3
		C78.9,21.4,77.4,22.1,76.7,23.3z"/>
	<path fill="#0067A6" d="M90.7,21.4c-1.6,0-3.1,0.7-3.9,1.9v-1.7h-2v13.9h2V27c0-2.1,1.3-3.7,3.3-3.7c1.1,0,1.6,0.3,2.4,1l1.5-1.5
		C93.1,21.7,92.1,21.4,90.7,21.4z"/>
	<path fill="#0067A6" d="M99,21.4c-3.5,0-5.7,2.6-5.7,7.1c0,4.9,2.4,7.1,6.1,7.1c2.4,0,3.7-0.7,5.1-2.1l-1.4-1.2
		c-1.1,1.1-2,1.6-3.6,1.6c-2.7,0-4.1-1.7-4.1-4.8h9.4v-0.9C104.7,24,102.6,21.4,99,21.4z M95.3,27.6c0.1-1.1,0.1-1.6,0.4-2.3
		c0.5-1.3,1.8-2.1,3.2-2.1c1.5,0,2.7,0.8,3.2,2.1c0.3,0.8,0.4,1.2,0.4,2.3H95.3z"/>
	<path fill="#0067A6" d="M115.6,23.2c-1.1-1.5-2.4-1.8-3.9-1.8c-1.4,0-2.7,0.5-3.4,1.2c-1.4,1.4-1.7,3.5-1.7,5.8
		c0,2.3,0.3,4.4,1.7,5.8c0.7,0.7,1.9,1.2,3.4,1.2c1.5,0,2.8-0.4,3.9-1.8v2.2c0,2.4-1.1,4.3-3.8,4.3c-1.6,0-2.3-0.5-3.3-1.4l-1.3,1.3
		c1.5,1.3,2.6,1.9,4.7,1.9c3.6,0,5.8-2.5,5.8-6V21.6h-2V23.2z M112.1,33.6c-3,0-3.5-2.6-3.5-5.2c0-2.6,0.5-5.2,3.5-5.2
		c3,0,3.4,2.6,3.4,5.2C115.5,31,115.1,33.6,112.1,33.6z"/>
	<path fill="#0067A6" d="M124.9,21.4c-2.3,0-3.7,0.5-4.9,2.1l1.4,1.3c0.8-1.2,1.7-1.6,3.5-1.6c2.5,0,3.6,1,3.6,3v1.3h-4.2
		c-3.1,0-4.8,1.6-4.8,4c0,1.1,0.4,2.1,1,2.8c0.9,0.9,2,1.3,3.9,1.3c1.9,0,2.9-0.4,4-1.5v1.3h2v-9.4C130.4,23,128.6,21.4,124.9,21.4z
		 M128.4,30.6c0,1.2-0.2,1.9-0.7,2.4c-0.9,0.8-1.9,0.9-3.1,0.9c-2.2,0-3.2-0.8-3.2-2.4c0-1.6,1-2.5,3.1-2.5h3.9V30.6z"/>
	<path fill="#0067A6" d="M137.6,21.4c-2.3,0-3.7,0.5-4.9,2.1l1.4,1.3c0.8-1.2,1.7-1.6,3.5-1.6c2.5,0,3.6,1,3.6,3v1.3h-4.2
		c-3.1,0-4.8,1.6-4.8,4c0,1.1,0.4,2.1,1,2.8c0.9,0.9,2,1.3,3.9,1.3c1.9,0,2.9-0.4,4-1.5v1.3h2v-9.4C143.1,23,141.3,21.4,137.6,21.4z
		 M141.1,30.6c0,1.2-0.2,1.9-0.7,2.4c-0.9,0.8-1.9,0.9-3.1,0.9c-2.2,0-3.2-0.8-3.2-2.4c0-1.6,1-2.5,3.1-2.5h3.9V30.6z"/>
	<path fill="#0067A6" d="M151,21.4c-1.6,0-3.1,0.7-3.9,1.9v-1.7h-2v13.9h2V27c0-2.1,1.3-3.7,3.3-3.7c1.1,0,1.6,0.3,2.4,1l1.5-1.5
		C153.3,21.7,152.3,21.4,151,21.4z"/>
	<path fill="#0067A6" d="M162.6,15.4v7.8c-1.1-1.4-2.4-1.8-3.9-1.8c-1.4,0-2.7,0.5-3.4,1.2c-1.4,1.4-1.7,3.7-1.7,5.9
		c0,2.2,0.3,4.5,1.7,5.9c0.7,0.7,2,1.2,3.4,1.2c1.5,0,2.8-0.4,4-1.8v1.7h2V15.4H162.6z M159.1,33.8c-3,0-3.5-2.6-3.5-5.3
		c0-2.7,0.5-5.3,3.5-5.3c3,0,3.5,2.6,3.5,5.3C162.6,31.2,162.1,33.8,159.1,33.8z"/>
	<path fill="#0067A6" d="M20.2,25.5l-0.3,1.4l-0.4,0c-0.6,0.2-1.1,0.8-1,1.5c0.1,0.7,0.5,1.1,0.5,1.1c0.1,0,0.2,0,0.3,0.1l-0.1,0.6
		l0.5,0.1l0.1-0.6c1.3,0,2.5-0.5,3-0.8c0.1,0.3,0.4,2.2,0.9,3c-0.7,0-3,1.6-3,4.2c-1.2,0.2-1.6,0.7-1.6,2.4h3.9
		c-0.2-1.6,0.4-3.1,3.3-3.3c0.8,0.7,1.1,0.8,1.6,1.2c-1.5,0.4-1.4,1.1-1.3,2.1h3.7l1-2.4C30,35.4,29,33.1,29,31.2v-8.5
		c0-1.4-0.7-2.5-1.4-2.6c0-1.2-1.6-1.3-1.8-0.2h-1.9c0,0.6-0.2,0.8-0.4,0.8c-0.6,0-1.5,0-1.5,0c0,1,0.5,1.7,1.1,1.7
		c0.6,0,1-0.1,1.1,0.5c-0.6,0-1.1,0-1.5,0c0.1,1.3,1.9,0.6,1.9,1l-3.8,3.3c0,0-0.2-0.1-0.5-0.2l0.3-1.5c0.2,0,0.4,0,0.6,0l0.2-0.8
		c-0.2,0-0.3-0.1-0.5-0.2l0.2-0.9l-0.5-0.1l-0.2,0.8c-0.6-0.3-1.2-0.8-1.4-1.2c-1,0.4-1.2,1.8-0.6,2.8
		C18.8,25.6,19.5,25.5,20.2,25.5z M24.6,21.2c-0.2,0-0.4-0.2-0.4-0.4c0-0.2,0.2-0.4,0.4-0.4c0.2,0,0.4,0.2,0.4,0.4
		C25,21.1,24.8,21.2,24.6,21.2z"/>
	<path fill="#0067A6" d="M2.6,34.1v1.9L4,37.4l3.7,3.7L9,42.5h1.9h16.8h0.6h1.4l1.4-1.4l3.7-3.7l1.4-1.4v-1.9V2.3H2.6V34.1z
		 M34.7,35.5l-5.6,5.6c-6.2,0-13.1,0-19.5,0l-5.4-5.4L34.7,3.9C34.7,6.4,34.7,26.3,34.7,35.5z M32.9,3.7L18.5,18.6v-4h2.9l-0.7-1.8
		h-2.3v-1.2h2l-0.7-1.9h-1.3V8.4h1l-1.5-4.7H32.9z M18,3.7l-1.5,4.7h1v1.2h-1.3l-0.7,1.9h2v1.2h-2.3l-0.7,1.8h2.9v5.1l-7.3,7.6v-6.6
		H14l-0.5-1.8h-3.4v-1.2h3.1l-0.5-1.9h-2.6v-1.2h2.3l-0.5-1.8h-1.8v-1.2h1.5l-0.5-1.9h-1V8.4h0.7L9.6,3.7H18z M4,3.7h5.6L8.4,8.4
		h0.7v1.2h-1l-0.5,1.9h1.5v1.2H7.3l-0.5,1.8h2.3v1.2H6.5L6,17.6h3.1v1.2H5.7l-0.5,1.8h3.9v7.7L4,33.7C4,23.5,4,4.6,4,3.7z"/>
</g>
</svg>
