<?xml version="1.0" encoding="UTF-8"?>
<svg width="95px" height="26px" viewBox="0 0 95 26" version="1.1" xmlns="http://www.w3.org/2000/svg" xmlns:xlink="http://www.w3.org/1999/xlink">
    <!-- Generator: Sketch 47.1 (45422) - http://www.bohemiancoding.com/sketch -->
    <title>Logo</title>
    <desc>Created with Sketch.</desc>
    <defs>
        <polyline id="path-1" points="0.0105927693 21.8671724 0.0105927693 0.16699716 37.9750779 0.16699716 37.9750779 21.8671724"/>
    </defs>
    <g id="Page-1" stroke="none" stroke-width="1" fill="none" fill-rule="evenodd">
        <g id="Artboard" transform="translate(-325.000000, -215.000000)">
            <g id="Logo" transform="translate(325.000000, 215.000000)">
                <g id="Cambi_logo_rgb-R-payoff-Copy">
                    <polyline id="Fill-1" fill="#1A3A6E" points="45.7108608 24.9945219 38 4 50.252574 4 53.5440139 16.352866 53.6088184 16.352866 56.8995615 4 67 4 67 25 60.2876855 25 60.2876855 11.5294251 60.223752 11.5294251 56.2222503 25 50.9307563 25 46.9290803 11.5294251 46.8644501 11.5294251 46.8644501 24.9950697 45.7108608 24.9945219"/>
                    <path d="M73,8 L76.4602051,8 C78.6226518,8 80.0650694,8.5234066 80.0650694,9.97331109 C80.0650694,11.8259571 78.6711135,12.3495386 76.4602051,12.3495386 L73,12.3495386 L73,8 Z M73.0161539,16.4565229 L77.8610582,16.4565229 C79.9813958,16.4565229 81,17.24207 81,18.67711 C81,20.5556378 79.3691805,21 77.4940557,21 L73.0161539,21 L73.0161539,16.4565229 L73.0161539,16.4565229 Z" id="Fill-2" fill="#1A3A6E"/>
                    <path d="M81,24.9979841 C84.7992976,24.7736657 88.3516383,22.6012225 88.3516383,18.6094911 C88.3516383,15.5100851 86.4294209,14.0047326 84.3790558,13.3552355 C86.0767982,12.4991969 87.197789,11.3479156 87.197789,9.22257199 C87.197789,8.83844504 87.1573213,8.42316275 87.056152,8 L94,8 L94,25 L81,24.9979841" id="Fill-3" fill="#1A3A6E"/>
                    <path d="M76,0 C76,0 82.5150891,0.546220977 86.7434436,5.40319453 L86.8498074,5.49935355 C88.2171675,6.76016808 89.2416833,7 90.8179286,7 C93.3030693,7 95,5.43600172 95,3.50301675 C95,1.56946614 92.9846765,0.00245111243 90.4995358,0.00245111243 L76,0" id="Fill-4" fill="#1A3A6E"/>
                    <polyline id="Fill-5" fill="#1A3A6E" points="32.4998121 7 29 17 36 17 32.4998121 7"/>
                    <g id="Group-9" transform="translate(0.000000, 4.000000)">
                        <polyline id="Fill-6" fill="#1A3A6E" points="25.7932167 21.3676756 27.1162535 17.4091373 36.652041 17.4091373 37.9750779 21.3676756 25.7932167 21.3676756"/>
                        <path d="M18.7244852,20.8276036 C16.9941563,21.5457094 14.8129286,21.8585351 12.4210813,21.8670387 C4.48886253,21.8961683 0,17.1590939 0,11.0303162 C0,4.49462996 4.87602825,0.16699716 12.429732,0.16699716 C19.1596714,0.196126675 22.8683765,3.18760126 23.5207145,8.38712931 L16.172334,8.38712931 C16.0353341,7.63193305 15.348393,5.33739569 12.2237027,5.33739569 C8.68730663,5.33739569 7.55370377,8.24184359 7.55370377,11.0303162 C7.55370377,13.8189698 8.68730663,16.7234177 12.2237027,16.7234177 C14.7647315,16.7234177 15.7602752,15.2128442 16.2071135,13.2667755 L21.8255184,13.2667755 L18.7244852,20.8276036" id="Fill-8" fill="#1A3A6E"/>
                        <mask id="mask-2" fill="white">
                            <use xlink:href="#path-1"/>
                        </mask>
                        <g id="Clip-7"/>
                    </g>
                </g>
            </g>
        </g>
    </g>
</svg>