<?xml version="1.0" encoding="UTF-8"?>
<svg id="Layer_1" xmlns="http://www.w3.org/2000/svg" viewBox="0 0 1000.01 1000"><defs><style>.cls-1{fill:#231f20;}</style></defs><path class="cls-1" d="M500,1000C224.3,1000,0,775.7,0,500S224.3,0,500,0s500,224.3,500,500-224.3,500-500,500Zm0-978.75C236.02,21.25,21.26,236.02,21.26,500s214.76,478.75,478.75,478.75,478.75-214.77,478.75-478.75S763.99,21.25,500,21.25Z"/><path class="cls-1" d="M499.53,626.15c-33.7,0-65.38-13.12-89.2-36.95-4.15-4.15-4.15-10.88,0-15.03,4.14-4.15,10.88-4.15,15.03,0,19.81,19.81,46.16,30.72,74.18,30.72,57.84,0,104.9-47.06,104.9-104.9s-47.06-104.9-104.9-104.9c-28.02,0-54.36,10.91-74.18,30.73-4.14,4.15-10.88,4.15-15.03,0-4.15-4.15-4.15-10.88,0-15.03,23.83-23.83,55.51-36.95,89.2-36.95,69.56,0,126.15,56.59,126.15,126.15s-56.6,126.15-126.15,126.15Z"/><path class="cls-1" d="M500,813.08c-172.63,0-313.08-140.45-313.08-313.08S327.37,186.92,500,186.92c126.64,0,240.05,75.49,288.93,192.32,2.27,5.41-.29,11.64-5.7,13.9-5.45,2.27-11.64-.29-13.9-5.7-45.57-108.9-151.29-179.27-269.33-179.27-160.91,0-291.82,130.91-291.82,291.82s130.91,291.83,291.82,291.83c118.05,0,223.77-70.37,269.33-179.27,2.26-5.41,8.46-7.98,13.9-5.7,5.41,2.27,7.97,8.49,5.7,13.9-48.88,116.83-162.29,192.32-288.93,192.32Z"/></svg>