<svg xmlns="http://www.w3.org/2000/svg" width="1535" height="513"><clipPath id="a"><path d="M-3544.06-326.87h5406.93v7027.65h-5406.93z"/></clipPath><g clip-path="url(#a)"><path fill="#fff" d="m985.8 8.2-8.7 6.3-3.6 14.1 10 15.9 3.6 49 18.2 37.7 32.2 68.1 45.4 80.4-6.3 42.6 3.6 36.3 8.6 39.1 22.7 29 22.7 13.7 14.1 30.4 20-6.4-21.4-65.3 37.7 26.3 50.4 17.7 71.3 8.6 76.7 11.4 79 17.7 58.1 17.7-36.3-66.8-43.1-54-79-75.3 22.2-60.4 49.5-54.5-164.8-23.6-49-12.3-36.3-21.3-61.8-39-21.3-15-40-17.7-46.7-20-5-10-.9-11.3-9.1-9.1z"/><g fill="#023c7c" fill-rule="evenodd"><path d="M1521 506.2s-18.1-8.6-52.2-18.6c-34-10-83.5-21.8-144.4-28.6l-83.9-10.5h-.5c-.5-.4-51.8-11.3-73.5-31.7 0 0-1.9-1.4-5-3.7-3.2-2.2-7.8-5.4-13.7-8.6-11.3-6.4-27.2-12.7-44.4-12.7q-4.1 0-7.8.4c8.2 19.6 22.3 36.8 44.5 47.7l-5.4 10c-52.7-26.8-62.7-83.1-62.7-123 0-27.7 4.6-48.2 5-48.6-8.6-15-19.5-33.1-30.4-52.2-26.3-47.2-54-97.6-59-117.1-1.4-3.2-10.5-29.1-10.5-55.9v-5.9c-3.1-3.2-8.6-10-8.6-20.4V25c0-.5.5-5.5 3.2-11.4 2.7-5.4 9.1-12.2 19.1-12.7h.9s4.5.5 10 2.7c5 1.8 11.8 6.8 12.2 16.4v11.8c16.4 6.3 83.6 34.9 108.1 51.3 0 0 49.9 29.9 59.4 37.2 9.1 6.4 48.2 36.3 91.3 38.1h.4l173 25-9.1 7.7s-16.8 15-34.5 37.7c-16.8 21.3-33.6 49.5-36.3 75.8 17.7 12.7 116.7 83.6 162.5 194.3l5.5 13.2zm-418.1-125.3c39.9 0 69.9 27.2 70.8 27.7 8.2 8.2 25.9 15.9 40.8 20.9 14.1 5 25.9 7.7 27.7 7.7l83.1 10.9c94 10 160.7 32.2 187.1 42.7-37.7-81.8-104.9-140.8-137.1-165.3-11.4-8.6-18.2-13.2-18.2-13.2l-3.2-1.8.5-3.2c3.6-49.4 47.6-97.6 66.3-116.2l-149-21.3c-47.6-2.3-88-34.1-97.1-40.4-8.6-6.4-58.6-36.8-59-36.8-12.7-8.6-40.4-21.8-64.5-32.7-24-10.9-44.9-19.5-44.9-19.5l-3.7-1.4V20c-.4-2.7-1.3-3.7-3.1-5-2.3-1.4-5-2.3-6.9-2.7h-1.8c-7.2.4-10 7.2-10.9 11.8l-.4 1.8v.9c-.5 5.9 3.6 10.9 5.9 13.2l.9.9 2.3 1.8v3.2q-.5 3.6-.5 7.2c0 13.2 2.3 26.3 5 35.9 2.3 10 4.5 16.3 4.5 16.3l.5.5v.4c4.1 15.9 31.8 67.7 58.1 114.4 26.3 46.8 51.8 89 51.8 89l-9.6 5.9s-5-8.6-13.1-22.2c-.9 8.1-2.3 19.9-2.3 33.6 0 16.8 1.8 36.3 8.2 54.9q5.9-.9 11.8-.9m110.5-7.3c-47.6 0-86-38.5-86-86.2s38.4-86.3 86-86.3 86 38.6 86 86.3-38.4 86.2-86 86.2m66.5-86.2c0-36.7-29.7-66.3-66.5-66.3s-66.5 29.6-66.5 66.3c0 36.6 29.7 66.3 66.5 66.3s66.5-29.7 66.5-66.3m-84.4-61.8 25.9 38.6 44.9-13.1-29.1 36.3 26.8 38.1-43.6-15.9-28.1 37.2 1.4-46.3-43.6-15.4 44.5-12.7z"/><path d="m1145.1 479.9 32.3-11.4-27.7-73.1-10.5 3.7 23.6 62.6-10.9 4.1-28.1-77.2-10.9 4.1zM111.4 224.3c-12.7-2.7-20-3.6-30.9-3.6-20 0-36.8 4.5-50.4 14-19.5 12.8-30 32.3-30 54.5 0 21.4 10 40.4 28.2 52.7 13.6 9.5 30 14.1 51.3 14.1 12.7 0 22.2-1.4 39.9-5 4.1-.9 4.6-.9 6.9-.9-1-2.8-1-4.1-1-10v-41.3c0-5.5.5-9.1 1-11.8H97.3c7.3 4 8.6 8.6 8.6 24.9v25.9c-6.3 2.3-17.7 4.1-26.8 4.1-31.7 0-56.7-25-56.7-55.4 0-30 22.7-51.8 54.5-51.8 15.4 0 25.8 3.7 34.5 11.8zM233.5 272.4c10 9.1 15.5 21.8 15.5 34.5 0 27.2-22.7 48.1-52.2 48.1-28.6 0-50-20-50-46.7 0-15 6.8-28.6 18.2-37.7 10-7.3 20.4-10.5 34.9-10.5 13.6 0 24.5 4.1 33.6 12.3m-66.7 33.1c0 20.9 13.6 36.8 31.8 36.8 17.7 0 29.9-13.2 29.9-32.7 0-21.8-12.7-36.8-31.7-36.8-17.8 0-30 13.7-30 32.7m96.2 47.2c7.3-5.9 7.8-6.8 7.8-19.5v-89.9c0-12.7-.5-13.6-7.8-19.5h13.7c5.9 0 9-.9 11.3-3.6v113c0 12.7.9 14.1 7.7 19.5zm104.9-49c-6.8 3.2-7.7 3.2-25 7.3-9.1 2.2-14.1 7.7-14.1 15 0 9.9 7.8 15.8 20.9 15.8 5 0 8.2-.4 14.6-2.2l-11.4 14.5c-4.5.9-6.8.9-10.9.9-10 0-17.2-2.3-23.1-7.2-6.4-6-10-13.7-10-21.8 0-8.2 4.1-15.9 10.9-19.6 5.4-3.1 11.3-5 25.8-7.7 17.3-3.2 21.8-6.3 21.8-13.1 0-7.8-7.2-12.8-18.6-12.8-8.1 0-13.6 1.9-26.8 8.2l13.2-20c5.5-.9 8.2-.9 13.6-.9 16.4 0 27.3 4.1 32.7 12.7 3.6 5.5 4.1 8.7 4.1 23.7v24.9c0 11.4.4 13.6 5 16.8 2.7 1.8 5.9 2.7 11.8 2.7l-8.6 13.2c-10-.9-14.1-1.8-18.6-4.5-5.9-3.7-7.3-7.8-7.3-20.5zm43.1 48.6c7.3-5.4 7.3-6.8 7.3-19.1v-51.7c0-12.7 0-13.6-7.3-19.1h13.6c5.9 0 8.7-.9 11.4-4.1v16.4c5.4-10 13.6-15 23.6-15 1.8 0 3.6 0 6.8.9v17.7c-2.7-2.3-5.4-3.2-9.5-3.2-6.8 0-13.2 3.2-16.8 8.2q-4.1 5.5-4.1 17.7v32.2c0 12.3.4 13.7 7.3 19.1zm143.4-15.9c8.6 1.4 17.7 2.3 25.9 2.3 14.1 0 23.1-3.2 35.9-12.3l-10.5 25.9h-79.9c7.3-3.6 8.6-8.2 8.6-25v-78.5c0-16.8-1.3-21.3-8.6-25H563c-7.2 3.7-8.6 8.2-8.6 25zm96.7-7.3c0 13.2 2.3 18.2 10.4 23.2h-34.9c8.2-5.5 10.4-10 10.4-23.2v-82.6c0-12.7-2.2-17.7-10.4-22.7h28.6c.9 1.8.9 2.3 4.5 7.3l72.7 92.1v-76.7c0-12.7-2.3-17.7-10.5-22.7h35c-8.6 5-10.5 10-10.5 22.7v112.2c-10.9-3.7-19-10-26.7-20.5l-68.6-87.1zM881.7 246c-9-8.2-19-11.8-34.9-11.8-31.8 0-54.5 21.8-54.5 51.7 0 30.9 25.4 55.4 56.7 55.4 9.6 0 20.9-1.3 26.8-3.6v-25.9c0-16.8-1.3-21.3-8.6-25h29.5c-.9 2.3-.9 5.9-.9 11.4v41.3c0 6.4 0 7.3.9 10-2.7.4-3.2.4-6.8 1.3-18.2 3.2-27.2 4.6-39.9 4.6-21.4 0-38.2-4.6-51.8-13.6-17.7-12.3-28.1-31.8-28.1-53.1 0-22.3 10.8-41.8 29.9-54.5 14.1-9.6 30.4-13.6 50.9-13.6 10.9 0 17.7.4 30.8 3.1z"/></g></g></svg>