<?xml version="1.0" encoding="utf-8"?>
<!-- Generator: Adobe Illustrator 22.1.0, SVG Export Plug-In . SVG Version: 6.00 Build 0)  -->
<svg version="1.1" id="Layer_1" xmlns="http://www.w3.org/2000/svg" xmlns:xlink="http://www.w3.org/1999/xlink" x="0px" y="0px"
	 viewBox="0 0 325.4 325.4" style="enable-background:new 0 0 325.4 325.4;" xml:space="preserve">
<style type="text/css">
	.st0{fill:#FFFFFF;}
</style>
<path class="st0" d="M16.1,262.8v39.7H0v-90.9h16.1v37H55v-37h16.1v90.9H55v-39.7H16.1z"/>
<path class="st0" d="M92,325.4l10.4-24.7c-7.6-20.2-16.9-44-25.2-65h17c7.4,21.2,11.6,34.6,16.3,47.7c4.1-11.1,10.8-31.9,16.3-47.7
	h16.7c-11.7,29.5-23.3,59.1-35.7,89.7L92,325.4z"/>
<path class="st0" d="M195.5,302.5V293c-3.8,5.9-11.6,10.9-23,10.9c-18.2,0-30.8-14.2-30.8-35.1c0-20.2,12.1-35.4,31.2-35.4
	c10.6,0,18.2,5.2,21.9,10.7c-0.1-4.7-0.1-8.6-0.1-13.2v-19.5h15.5v90.9L195.5,302.5z M157.6,269.1c0,12.7,6.9,22.3,18.4,22.3
	c12.1,0,19.3-9.7,19.3-22.8c0-12.9-8-22.3-19.2-22.3C164.5,246.4,157.6,256.4,157.6,269.1L157.6,269.1z"/>
<path class="st0" d="M234.7,235.6v4.6c0,1.5,0,3.1-0.1,4.4c2.3-6.7,8.5-10.6,16.2-10.6c1.2,0,2.5,0.1,3.7,0.3V249
	c-1.5-0.4-3-0.5-4.4-0.5c-12.1,0-14.2,8.7-14.2,22.4v31.5h-15.5v-54.8c0-4.2,0-8-0.1-12.1H234.7z"/>
<path class="st0" d="M325.4,269.1c0,20.6-13.6,35.4-35.2,35.4s-34.6-14.9-34.6-35.4c0-21,13.9-35.7,34.9-35.7
	S325.4,248.1,325.4,269.1z M271.4,269c0,13.6,7,22.5,18.7,22.5S309,282.6,309,269c0-13.2-7.1-22.6-18.8-22.6S271.4,255.8,271.4,269z
	"/>
<path class="st0" d="M162.7,0h-81c-2.4-0.1-4.5,1.7-4.6,4.2c-0.1,2.4,1.7,4.5,4.2,4.6c0.1,0,0.3,0,0.4,0c42.3,0,76.6,34.3,76.6,76.6
	c0,42.3-34.3,76.6-76.6,76.6c-2.4-0.1-4.5,1.7-4.6,4.2c-0.1,2.4,1.7,4.5,4.2,4.6c0.1,0,0.3,0,0.4,0h81c47.1,0,85.3-38.2,85.3-85.4
	C248,38.2,209.8,0,162.7,0z M148.3,160.9c41.7-21.8,57.8-73.4,36-115.1c-8.1-15.4-20.6-27.9-36-36c41.7,7,69.9,46.5,62.9,88.2
	C205.8,130.2,180.6,155.5,148.3,160.9z M167,85.3c0-31.7-17.6-60.8-45.6-75.5c41.7,7,69.9,46.5,62.9,88.2
	c-5.4,32.2-30.7,57.5-62.9,62.9C149.4,146.1,167,117,167,85.3z M175.3,160.9c41.7-21.8,57.8-73.4,36-115.1
	c-8.1-15.4-20.6-27.9-36-36c41.7,7,69.9,46.5,62.9,88.2C232.8,130.2,207.5,155.5,175.3,160.9z"/>
</svg>
