<?xml version="1.0" encoding="UTF-8" standalone="no"?>
<!DOCTYPE svg PUBLIC "-//W3C//DTD SVG 1.1//EN" "http://www.w3.org/Graphics/SVG/1.1/DTD/svg11.dtd">
<svg width="100%" height="100%" viewBox="0 0 326 326" version="1.1" xmlns="http://www.w3.org/2000/svg" xmlns:xlink="http://www.w3.org/1999/xlink" xml:space="preserve" xmlns:serif="http://www.serif.com/" style="fill-rule:evenodd;clip-rule:evenodd;stroke-linejoin:round;stroke-miterlimit:2;">
    <path d="M16.1,262.8L16.1,302.5L0,302.5L0,211.6L16.1,211.6L16.1,248.6L55,248.6L55,211.6L71.1,211.6L71.1,302.5L55,302.5L55,262.8L16.1,262.8Z" style="fill:rgb(68,77,85);fill-rule:nonzero;"/>
    <path d="M92,325.4L102.4,300.7C94.8,280.5 85.5,256.7 77.2,235.7L94.2,235.7C101.6,256.9 105.8,270.3 110.5,283.4C114.6,272.3 121.3,251.5 126.8,235.7L143.5,235.7C131.8,265.2 120.2,294.8 107.8,325.4L92,325.4Z" style="fill:rgb(68,77,85);fill-rule:nonzero;"/>
    <path d="M195.5,302.5L195.5,293C191.7,298.9 183.9,303.9 172.5,303.9C154.3,303.9 141.7,289.7 141.7,268.8C141.7,248.6 153.8,233.4 172.9,233.4C183.5,233.4 191.1,238.6 194.8,244.1C194.7,239.4 194.7,235.5 194.7,230.9L194.7,211.4L210.2,211.4L210.2,302.3L195.5,302.5ZM157.6,269.1C157.6,281.8 164.5,291.4 176,291.4C188.1,291.4 195.3,281.7 195.3,268.6C195.3,255.7 187.3,246.3 176.1,246.3C164.5,246.4 157.6,256.4 157.6,269.1Z" style="fill:rgb(68,77,85);fill-rule:nonzero;"/>
    <path d="M234.7,235.5L234.7,240.2C234.7,241.7 234.7,243.3 234.6,244.6C236.9,237.9 243.1,234 250.8,234C252,234 253.3,234.1 254.5,234.3L254.5,249C253,248.6 251.5,248.5 250.1,248.5C238,248.5 235.9,257.2 235.9,270.9L235.9,302.4L220.4,302.4L220.4,247.6C220.4,243.4 220.4,239.6 220.3,235.5L234.7,235.5Z" style="fill:rgb(68,77,85);fill-rule:nonzero;"/>
    <path d="M325.4,269.1C325.4,289.7 311.8,304.5 290.2,304.5C268.6,304.5 255.6,289.6 255.6,269.1C255.6,248.1 269.5,233.4 290.5,233.4C311.5,233.4 325.4,248.1 325.4,269.1ZM271.4,269C271.4,282.6 278.4,291.5 290.1,291.5C301.8,291.5 309,282.6 309,269C309,255.8 301.9,246.4 290.2,246.4C278.5,246.4 271.4,255.8 271.4,269Z" style="fill:rgb(68,77,85);fill-rule:nonzero;"/>
    <path d="M162.7,0L81.7,0C79.3,-0.1 77.2,1.7 77.1,4.2C77,6.6 78.8,8.7 81.3,8.8L81.7,8.8C124,8.8 158.3,43.1 158.3,85.4C158.3,127.7 124,162 81.7,162C79.3,161.9 77.2,163.7 77.1,166.2C77,168.6 78.8,170.7 81.3,170.8L162.7,170.8C209.8,170.8 248,132.6 248,85.4C248,38.2 209.8,0 162.7,0ZM148.3,160.9C190,139.1 206.1,87.5 184.3,45.8C176.2,30.4 163.7,17.9 148.3,9.8C190,16.8 218.2,56.3 211.2,98C205.8,130.2 180.6,155.5 148.3,160.9ZM167,85.3C167,53.6 149.4,24.5 121.4,9.8C163.1,16.8 191.3,56.3 184.3,98C178.9,130.2 153.6,155.5 121.4,160.9C149.4,146.1 167,117 167,85.3ZM175.3,160.9C217,139.1 233.1,87.5 211.3,45.8C203.2,30.4 190.7,17.9 175.3,9.8C217,16.8 245.2,56.3 238.2,98C232.8,130.2 207.5,155.5 175.3,160.9Z" style="fill:rgb(68,77,85);fill-rule:nonzero;"/>
</svg>
