<svg xmlns:xlink="http://www.w3.org/1999/xlink" xmlns="http://www.w3.org/2000/svg" viewBox="0 0 311.8 90.6" width="311.8" height="90.6">
<defs>
 <style>
  .cls-1 {fill: #d52b1e;}
  .cls-1, .cls-2, .cls-3, .cls-4 {stroke-width: 0px;}
  .cls-2 {fill: #fff;}
  .cls-3 {fill: #f0ab00;}
  .cls-4 {fill: #031e45;}
 </style>
</defs>
 <rect class="cls-3" y="12.6" width="311.8" height="78"></rect>
 <rect class="cls-1" width="311.8" height="12.6"></rect>
 <path class="cls-2" d="m42.8,79.9c-16.5,0-29.9-10-29.9-20,0-12.8,13.4-21.4,29.9-21.4s29.9,8.6,29.9,21.4c0,10-13.4,20-29.9,20Z"></path>
 <path class="cls-4" d="m80.5,69c3.9.7,9,1,11.7-2.3,2.6-3,2.1-7.3,2.3-11.2.1-10.1-.1-20.3-.4-30.4h13.2c-.4,10.6-.5,20.6-.4,31.2,0,5.6.3,11.4-3.4,15.6-4.5,5.3-11.3,6.5-18.3,6.5l-1.5-.1-3.2-9.3Z"></path>
 <path class="cls-4" d="m286.2,75.4c-6.2-9.5-13.2-18.6-20.2-27.8h0c-.1,9.2.1,18.6.4,27.7h-11.8c.6-16.6.5-33.6,0-50.3h10.6c6.2,9.5,13.3,18.7,20.2,27.8.1-9.3,0-18.7-.4-27.8h11.8c-.1,5.5-.3,11.2-.3,16.6-.1,11.2,0,22.6.3,33.7l-10.6.1h0Z"></path>
 <path class="cls-4" d="m188.7,75.4c-.5-13.5-.5-27.3-.2-40.9h0c4.2,0,8.7.2,12.8.4v-9.8h-38.3v9.8c4.1-.3,8.6-.5,12.8-.4h0c.3,13.6.2,27.4-.2,40.9h13.1Z"></path>
 <path class="cls-4" d="m226.1,76.9c-3.1,0-6.2-.3-9-1.2-4.6-1.4-8.6-5-10.2-9.4-1.8-4.2-1.2-9.4-1.3-14,.1-9-.1-18.1-.4-27.1h12.9c-.3,10.1-.4,20.6-.3,30.6.1,3.7.1,7.5,2.7,10.1,1.4,1.5,3.5,2.1,5.6,2.1h0c2.1,0,4.2-.6,5.6-2.1,2.6-2.6,2.6-6.4,2.7-10.1.1-10,0-20.5-.3-30.6h12.9c-.3,9-.4,18.1-.4,27.1-.1,4.5.4,9.8-1.3,14-1.7,4.5-5.7,8-10.2,9.4-2.7.8-5.8,1.2-9,1.2h0Z"></path>
 <path class="cls-4" d="m163.3,42.3c-1.7-6.1-5.9-12.1-11.9-15.4-3.7-2.1-8.3-3.2-12.9-3.2h0c-4.6,0-9.3,1-12.9,3.2-6,3.3-10.2,9.2-11.9,15.4-1.8,7.7-1.2,16.6,3.1,23,3,4.8,7.6,8.4,12.8,10.1,2.9,1,5.9,1.4,8.9,1.4h0c3,0,6-.5,8.9-1.4,5.2-1.7,9.8-5.4,12.8-10.1,4.3-6.4,4.9-15.3,3.1-23Zm-12.1,11.2c-.3,4.1-1.4,7.9-4.1,11-2.1,2.6-5.4,3.7-8.7,3.7s-6.6-1.2-8.7-3.7c-2.6-3.1-3.8-6.9-4.1-11-.3-6.5,0-13.1,4.5-17.8,2.2-2.4,5.2-3.4,8.3-3.4s6.1,1,8.3,3.4c4.5,4.7,4.8,11.3,4.5,17.8Z"></path>
 <path class="cls-4" d="m53.2,39.4v-19.3c-5.3,0-12.4.9-17.2,7.9-2.1,3.4-3.5,7.2-4.1,11.6-.5.1-1,.2-1.4.4-10.6,3.1-17.9,10.4-17.9,19.9,0,7.8,7.9,15.4,19,18.7v1.9h22.4v-1.9c11.1-3.2,19-10.9,19-18.7,0-10.2-8.3-17.7-19.8-20.5Zm-35.7,10.3h6.6c-1.4,2.3-2.4,4.9-2.8,7.7h-7.1c.4-2.8,1.6-5.4,3.3-7.7Zm-3.5,10.2c0-.4,0-.7.1-1.1h7.2c0,.4-.1.7-.1,1.1,0,2.3.4,4.5,1.2,6.6h-6.4c-1.3-2.1-2-4.4-2-6.6Zm17.6,17.3c-6.3-1.9-11.5-5.3-14.6-9.3h6c1.7,3.9,4.8,7.1,8.6,9.3h0Zm0-1.6c-3-1.9-5.4-4.6-7-7.7h7v7.7Zm0-9.1h-7.6c-.8-2.1-1.3-4.3-1.3-6.6,0-.4,0-.7.1-1.1h8.9l-.1,7.7h0Zm0-9.1h-8.7c.4-2.8,1.4-5.4,3-7.7h5.7v7.7Zm11.2,21.1c-6.5,0-8.8-8.8-8.8-19.6s2.1-19.6,8.8-19.6,8.8,8.8,8.8,19.6-2.3,19.6-8.8,19.6Zm25.4-28.8c1.7,2.3,2.8,4.8,3.3,7.7h-7.2c-.4-2.8-1.3-5.4-2.8-7.7h6.7Zm-14.2,0h5.8c1.6,2.3,2.6,4.9,3,7.7h-8.8v-7.7Zm0,9.1h8.9c0,.4.1.7.1,1.1,0,2.3-.5,4.5-1.3,6.6h-7.7v-7.7Zm0,9.1h7.1c-1.6,3.1-4,5.8-7.1,7.7v-7.7Zm0,9.3c3.8-2.2,6.9-5.4,8.7-9.3h6c-3.1,4-8.3,7.4-14.7,9.3Zm9.2-10.7c.8-2.1,1.2-4.3,1.2-6.6,0-.4,0-.7-.1-1.1h7.2v1.1c0,2.3-.7,4.5-2,6.6h-6.3Z"></path>
 <path class="cls-2" d="m43.7,25.4c-1,0-1.8.8-1.8,1.8s.8,1.8,1.8,1.8,1.8-.8,1.8-1.8-.8-1.8-1.8-1.8Zm0,2.4c-.3,0-.6-.3-.6-.6s.3-.6.6-.6.6.3.6.6-.3.6-.6.6Z"></path>
</svg>