<?xml version="1.0" encoding="UTF-8"?>
<!-- Generator: Adobe Illustrator 21.0.2, SVG Export Plug-In . SVG Version: 6.00 Build 0)  -->
<svg version="1.1" id="Layer_2" xmlns="http://www.w3.org/2000/svg" xmlns:xlink="http://www.w3.org/1999/xlink" x="0px" y="0px" viewBox="0 0 912.8 197.8" enable-background="new 0 0 912.8 197.8" xml:space="preserve">
<g>
	<polygon fill="#202020" points="88.8,125.1 21.8,42.9 10.5,42.9 10.5,149 23.9,149 23.9,67.3 90,149 102.2,149 102.2,42.9    88.8,42.9  "/>
	<path fill="#202020" d="M152.6,77.8c-19.4,0-34.4,15.6-34.4,35.6c0,21.5,14.4,37,34.4,37c20.9,0,35.2-14.9,35.2-37   C187.9,92.7,173.1,77.8,152.6,77.8z M152.5,138c-12.5,0-21-9.8-21-24.6c0-13.4,8.8-23.2,21-23.2c12.9,0,22.2,9.8,22.2,23.3   C174.7,128.7,166.1,138,152.5,138z"/>
	<path fill="#202020" d="M216.3,95.2H216v-16h-12.9V149H216v-36.6c0-12,7-21.5,15.8-21.5c3,0,8.1,2.8,12,6.8l6.8-12   c-5.4-5.4-10.3-8.1-15.5-8.1C229,77.8,222.8,82.9,216.3,95.2z"/>
	<path fill="#202020" d="M266,114.2c0-14.2,8.1-23.7,19.9-23.7c5.7,0,10.6,1.6,18,6.8V82.6c-6.2-3-11.3-4.8-18.9-4.8   c-19.7,0-32.2,14.6-32.2,37.7c0,20.5,13.6,35,33.1,35c6.8,0,15.1-1.9,19.4-4v-13.7c-6.5,3.1-11.7,4.7-17.3,4.7   C274.7,137.4,266,128.7,266,114.2z"/>
	<path fill="#202020" d="M350,77.8c-19.4,0-34.4,15.6-34.4,35.6c0,21.5,14.4,37,34.4,37c20.9,0,35.2-14.9,35.2-37   C385.2,92.7,370.4,77.8,350,77.8z M349.9,138c-12.5,0-21-9.8-21-24.6c0-13.4,8.8-23.2,21-23.2c12.9,0,22.2,9.8,22.2,23.3   C372,128.7,363.5,138,349.9,138z"/>
	<path fill="#202020" d="M431.9,77.8c-7.3,0-14.5,3.9-19.4,10.6h-0.3v-9.2h-12.9V149h12.9V98.9c6.1-7.3,10.6-10.1,16.2-10.1   c7.8,0,12.8,6.7,12.8,17V149h12.9v-43.1C454.1,86.8,444.2,77.8,431.9,77.8z"/>
	<path fill="#202020" d="M498.3,110.3c-11.4-7.2-15.8-10.9-15.8-14c0-3.7,3.3-6.4,8.6-6.4c4.8,0,11.6,2.2,18.9,7.3V83.5   c-6.8-3.9-13.1-5.8-19.1-5.8c-13,0-21.5,7.2-21.5,19c0,18.8,30.5,24,30.5,33.6c0,5-4.3,7.6-9.6,7.9c-5.2,0-12.9-3-21.3-9.2v14.9   c8.4,4.7,14.7,6.4,22.6,6.4c12.3,0,21.5-8.2,21.5-20.5C513,122.7,509.1,117.9,498.3,110.3z"/>
	<path fill="#202020" d="M569.3,129.1c-4.2,6.4-9.7,9.8-15.5,9.8c-8.8,0-13.3-5.6-13.3-15.4V79.2h-12.9v43.4   c0,17.7,9.3,27.9,22.5,27.9c6.4,0,13.9-4,19.3-10.3v8.9h12.9V79.2h-12.9V129.1z"/>
	<rect x="600.7" y="42.9" fill="#202020" width="12.9" height="106.2"/>
	<path fill="#202020" d="M647.3,127.4V91.6h20.6V79.2h-20.6V64.7L623.1,90v1.6h11.3v36.9c0,12.6,7.1,21.9,21.2,21.9   c4.2,0,11.2-2,15.7-4.7v-12.9c-5.2,3.4-10,5.1-14.6,5.1C652.8,138,647.3,135.7,647.3,127.4z"/>
	<polygon fill="#202020" points="848.5,49.9 804.7,6.2 761,49.9 804.7,93.6  "/>
	
		<rect x="719.9" y="72.9" transform="matrix(0.7071 -0.7071 0.7071 0.7071 146.5505 561.3615)" fill="#202020" width="61.9" height="61.9"/>
	<polygon fill="#202020" points="858.6,60 814.9,103.7 858.6,147.5 902.3,103.7  "/>
	<path fill="#202020" d="M804.7,123.6c-18.8,0-34,15.2-34,34c0,18.8,15.2,34,34,34c18.8,0,34-15.2,34-34   C838.7,138.8,823.5,123.6,804.7,123.6z"/>
</g>
<g>
</g>
</svg>