<?xml version="1.0" encoding="UTF-8" standalone="no"?>
<!DOCTYPE svg PUBLIC "-//W3C//DTD SVG 1.1//EN" "http://www.w3.org/Graphics/SVG/1.1/DTD/svg11.dtd">
<svg width="100%" height="100%" viewBox="0 0 91 24" version="1.1" xmlns="http://www.w3.org/2000/svg" xmlns:xlink="http://www.w3.org/1999/xlink" xml:space="preserve" xmlns:serif="http://www.serif.com/" style="fill-rule:evenodd;clip-rule:evenodd;stroke-linejoin:round;stroke-miterlimit:2;">
    <path d="M9.152,12C9.264,12 9.328,11.904 9.264,11.792L6.976,7.36C8.224,6.896 9.04,5.792 9.04,4.368C9.04,2.448 7.568,1.12 5.568,1.12L1.36,1.12C1.264,1.12 1.2,1.184 1.2,1.28L1.2,11.84C1.2,11.936 1.264,12 1.36,12L2.928,12C3.024,12 3.088,11.936 3.088,11.84L3.088,7.696C3.088,7.632 3.12,7.6 3.184,7.6L5.056,7.6L7.136,11.84C7.184,11.952 7.248,12 7.376,12L9.152,12ZM5.504,5.904L3.184,5.904C3.12,5.904 3.088,5.872 3.088,5.808L3.088,2.912C3.088,2.848 3.12,2.816 3.184,2.816L5.504,2.816C6.496,2.816 7.168,3.424 7.168,4.368C7.168,5.296 6.496,5.904 5.504,5.904Z" style="fill:rgb(0,68,85);fill-rule:nonzero;"/>
    <path d="M11.106,11.84C11.106,11.936 11.17,12 11.266,12L18.082,12C18.178,12 18.242,11.936 18.242,11.84L18.242,10.464C18.242,10.368 18.178,10.304 18.082,10.304L13.09,10.304C13.026,10.304 12.994,10.272 12.994,10.208L12.994,7.456C12.994,7.392 13.026,7.36 13.09,7.36L17.298,7.36C17.394,7.36 17.458,7.296 17.458,7.2L17.458,5.824C17.458,5.728 17.394,5.664 17.298,5.664L13.09,5.664C13.026,5.664 12.994,5.632 12.994,5.568L12.994,2.912C12.994,2.848 13.026,2.816 13.09,2.816L18.082,2.816C18.178,2.816 18.242,2.752 18.242,2.656L18.242,1.28C18.242,1.184 18.178,1.12 18.082,1.12L11.266,1.12C11.17,1.12 11.106,1.184 11.106,1.28L11.106,11.84Z" style="fill:rgb(0,68,85);fill-rule:nonzero;"/>
    <path d="M20.231,11.84C20.231,11.936 20.295,12 20.391,12L21.959,12C22.055,12 22.119,11.936 22.119,11.84L22.119,1.28C22.119,1.184 22.055,1.12 21.959,1.12L20.391,1.12C20.295,1.12 20.231,1.184 20.231,1.28L20.231,11.84Z" style="fill:rgb(0,68,85);fill-rule:nonzero;"/>
    <path d="M24.513,11.84C24.513,11.936 24.577,12 24.673,12L26.065,12C26.161,12 26.225,11.936 26.225,11.84L26.225,4.352L26.289,4.352L30.737,11.84C30.801,11.952 30.881,12 31.009,12L32.465,12C32.561,12 32.625,11.936 32.625,11.84L32.625,1.28C32.625,1.184 32.561,1.12 32.465,1.12L31.073,1.12C30.977,1.12 30.913,1.184 30.913,1.28L30.913,8.784L30.849,8.784L26.417,1.28C26.353,1.168 26.273,1.12 26.145,1.12L24.673,1.12C24.577,1.12 24.513,1.184 24.513,1.28L24.513,11.84Z" style="fill:rgb(0,68,85);fill-rule:nonzero;"/>
    <path d="M35.028,11.84C35.028,11.936 35.092,12 35.188,12L42.004,12C42.1,12 42.164,11.936 42.164,11.84L42.164,10.464C42.164,10.368 42.1,10.304 42.004,10.304L37.012,10.304C36.948,10.304 36.916,10.272 36.916,10.208L36.916,7.456C36.916,7.392 36.948,7.36 37.012,7.36L41.22,7.36C41.316,7.36 41.38,7.296 41.38,7.2L41.38,5.824C41.38,5.728 41.316,5.664 41.22,5.664L37.012,5.664C36.948,5.664 36.916,5.632 36.916,5.568L36.916,2.912C36.916,2.848 36.948,2.816 37.012,2.816L42.004,2.816C42.1,2.816 42.164,2.752 42.164,2.656L42.164,1.28C42.164,1.184 42.1,1.12 42.004,1.12L35.188,1.12C35.092,1.12 35.028,1.184 35.028,1.28L35.028,11.84Z" style="fill:rgb(0,68,85);fill-rule:nonzero;"/>
    <path d="M52.105,12C52.217,12 52.281,11.904 52.217,11.792L49.929,7.36C51.177,6.896 51.993,5.792 51.993,4.368C51.993,2.448 50.521,1.12 48.521,1.12L44.313,1.12C44.217,1.12 44.153,1.184 44.153,1.28L44.153,11.84C44.153,11.936 44.217,12 44.313,12L45.881,12C45.977,12 46.041,11.936 46.041,11.84L46.041,7.696C46.041,7.632 46.073,7.6 46.137,7.6L48.009,7.6L50.089,11.84C50.137,11.952 50.201,12 50.329,12L52.105,12ZM48.457,5.904L46.137,5.904C46.073,5.904 46.041,5.872 46.041,5.808L46.041,2.912C46.041,2.848 46.073,2.816 46.137,2.816L48.457,2.816C49.449,2.816 50.121,3.424 50.121,4.368C50.121,5.296 49.449,5.904 48.457,5.904Z" style="fill:rgb(0,68,85);fill-rule:nonzero;"/>
    <path d="M57.997,12C58.093,12 58.157,11.936 58.157,11.84L58.157,2.912C58.157,2.848 58.189,2.816 58.253,2.816L61.101,2.816C61.197,2.816 61.261,2.752 61.261,2.656L61.261,1.28C61.261,1.184 61.197,1.12 61.101,1.12L53.325,1.12C53.229,1.12 53.165,1.184 53.165,1.28L53.165,2.656C53.165,2.752 53.229,2.816 53.325,2.816L56.173,2.816C56.237,2.816 56.269,2.848 56.269,2.912L56.269,11.84C56.269,11.936 56.333,12 56.429,12L57.997,12Z" style="fill:rgb(0,68,85);fill-rule:nonzero;"/>
    <path d="M66.234,12.176C68.938,12.176 70.33,10.736 70.33,8.8C70.33,6.928 69.178,5.936 67.082,5.648L66.506,5.568C65.034,5.36 64.506,4.848 64.506,4.096C64.506,3.248 65.114,2.64 66.218,2.64C67.13,2.64 67.946,2.912 68.826,3.488C68.906,3.536 68.986,3.52 69.05,3.44L69.818,2.256C69.882,2.16 69.866,2.096 69.786,2.032C68.922,1.376 67.626,0.944 66.266,0.944C64.026,0.944 62.586,2.256 62.586,4.224C62.586,6.032 63.77,7.04 65.866,7.328L66.442,7.408C67.946,7.616 68.426,8.128 68.426,8.912C68.426,9.824 67.674,10.48 66.378,10.48C65.162,10.48 64.122,9.888 63.418,9.328C63.354,9.264 63.258,9.264 63.194,9.344L62.202,10.496C62.138,10.576 62.17,10.672 62.234,10.736C63.082,11.536 64.634,12.176 66.234,12.176Z" style="fill:rgb(0,68,85);fill-rule:nonzero;"/>
    <path d="M72.2,11.84C72.2,11.936 72.264,12 72.36,12L79.176,12C79.272,12 79.336,11.936 79.336,11.84L79.336,10.464C79.336,10.368 79.272,10.304 79.176,10.304L74.184,10.304C74.12,10.304 74.088,10.272 74.088,10.208L74.088,7.456C74.088,7.392 74.12,7.36 74.184,7.36L78.392,7.36C78.488,7.36 78.552,7.296 78.552,7.2L78.552,5.824C78.552,5.728 78.488,5.664 78.392,5.664L74.184,5.664C74.12,5.664 74.088,5.632 74.088,5.568L74.088,2.912C74.088,2.848 74.12,2.816 74.184,2.816L79.176,2.816C79.272,2.816 79.336,2.752 79.336,2.656L79.336,1.28C79.336,1.184 79.272,1.12 79.176,1.12L72.36,1.12C72.264,1.12 72.2,1.184 72.2,1.28L72.2,11.84Z" style="fill:rgb(0,68,85);fill-rule:nonzero;"/>
    <path d="M81.325,11.84C81.325,11.936 81.389,12 81.485,12L82.877,12C82.973,12 83.037,11.936 83.037,11.84L83.037,4.352L83.101,4.352L87.549,11.84C87.613,11.952 87.693,12 87.821,12L89.277,12C89.373,12 89.437,11.936 89.437,11.84L89.437,1.28C89.437,1.184 89.373,1.12 89.277,1.12L87.885,1.12C87.789,1.12 87.725,1.184 87.725,1.28L87.725,8.784L87.661,8.784L83.229,1.28C83.165,1.168 83.085,1.12 82.957,1.12L81.485,1.12C81.389,1.12 81.325,1.184 81.325,1.28L81.325,11.84Z" style="fill:rgb(0,68,85);fill-rule:nonzero;"/>
    <path d="M0.6,21.92C0.6,21.968 0.632,22 0.68,22L1.376,22C1.424,22 1.456,21.968 1.456,21.92L1.456,18.176L1.488,18.176L3.712,21.92C3.744,21.976 3.784,22 3.848,22L4.576,22C4.624,22 4.656,21.968 4.656,21.92L4.656,16.64C4.656,16.592 4.624,16.56 4.576,16.56L3.88,16.56C3.832,16.56 3.8,16.592 3.8,16.64L3.8,20.392L3.768,20.392L1.552,16.64C1.52,16.584 1.48,16.56 1.416,16.56L0.68,16.56C0.632,16.56 0.6,16.592 0.6,16.64L0.6,21.92Z" style="fill:rgb(0,68,85);fill-rule:nonzero;"/>
    <path d="M5.858,21.92C5.858,21.968 5.89,22 5.938,22L9.346,22C9.394,22 9.426,21.968 9.426,21.92L9.426,21.232C9.426,21.184 9.394,21.152 9.346,21.152L6.85,21.152C6.818,21.152 6.802,21.136 6.802,21.104L6.802,19.728C6.802,19.696 6.818,19.68 6.85,19.68L8.954,19.68C9.002,19.68 9.034,19.648 9.034,19.6L9.034,18.912C9.034,18.864 9.002,18.832 8.954,18.832L6.85,18.832C6.818,18.832 6.802,18.816 6.802,18.784L6.802,17.456C6.802,17.424 6.818,17.408 6.85,17.408L9.346,17.408C9.394,17.408 9.426,17.376 9.426,17.328L9.426,16.64C9.426,16.592 9.394,16.56 9.346,16.56L5.938,16.56C5.89,16.56 5.858,16.592 5.858,16.64L5.858,21.92Z" style="fill:rgb(0,68,85);fill-rule:nonzero;"/>
    <path d="M14.884,22C14.932,22 14.972,21.968 14.98,21.92L16.308,16.64C16.316,16.592 16.3,16.56 16.244,16.56L15.5,16.56C15.452,16.56 15.412,16.584 15.404,16.64L14.564,20.304L14.548,20.304L13.508,16.64C13.492,16.592 13.468,16.56 13.412,16.56L12.852,16.56C12.804,16.56 12.772,16.592 12.756,16.64L11.74,20.304L11.724,20.304L10.86,16.64C10.852,16.592 10.82,16.56 10.764,16.56L10.012,16.56C9.956,16.56 9.94,16.592 9.948,16.64L11.284,21.92C11.3,21.968 11.332,22 11.38,22L11.98,22C12.028,22 12.06,21.968 12.076,21.92L13.124,18.2L13.14,18.2L14.18,21.92C14.196,21.968 14.228,22 14.276,22L14.884,22Z" style="fill:rgb(0,68,85);fill-rule:nonzero;"/>
    <path d="M18.772,21.92C18.772,21.968 18.804,22 18.852,22L22.26,22C22.308,22 22.34,21.968 22.34,21.92L22.34,21.232C22.34,21.184 22.308,21.152 22.26,21.152L19.764,21.152C19.732,21.152 19.716,21.136 19.716,21.104L19.716,19.728C19.716,19.696 19.732,19.68 19.764,19.68L21.868,19.68C21.916,19.68 21.948,19.648 21.948,19.6L21.948,18.912C21.948,18.864 21.916,18.832 21.868,18.832L19.764,18.832C19.732,18.832 19.716,18.816 19.716,18.784L19.716,17.456C19.716,17.424 19.732,17.408 19.764,17.408L22.26,17.408C22.308,17.408 22.34,17.376 22.34,17.328L22.34,16.64C22.34,16.592 22.308,16.56 22.26,16.56L18.852,16.56C18.804,16.56 18.772,16.592 18.772,16.64L18.772,21.92Z" style="fill:rgb(0,68,85);fill-rule:nonzero;"/>
    <path d="M23.334,21.92C23.334,21.968 23.366,22 23.415,22L24.11,22C24.159,22 24.191,21.968 24.191,21.92L24.191,18.176L24.223,18.176L26.447,21.92C26.479,21.976 26.519,22 26.583,22L27.311,22C27.359,22 27.391,21.968 27.391,21.92L27.391,16.64C27.391,16.592 27.359,16.56 27.311,16.56L26.615,16.56C26.567,16.56 26.535,16.592 26.535,16.64L26.535,20.392L26.503,20.392L24.287,16.64C24.255,16.584 24.215,16.56 24.151,16.56L23.415,16.56C23.366,16.56 23.334,16.592 23.334,16.64L23.334,21.92Z" style="fill:rgb(0,68,85);fill-rule:nonzero;"/>
    <path d="M28.592,21.92C28.592,21.968 28.624,22 28.672,22L32.08,22C32.128,22 32.16,21.968 32.16,21.92L32.16,21.232C32.16,21.184 32.128,21.152 32.08,21.152L29.584,21.152C29.552,21.152 29.536,21.136 29.536,21.104L29.536,19.728C29.536,19.696 29.552,19.68 29.584,19.68L31.688,19.68C31.736,19.68 31.768,19.648 31.768,19.6L31.768,18.912C31.768,18.864 31.736,18.832 31.688,18.832L29.584,18.832C29.552,18.832 29.536,18.816 29.536,18.784L29.536,17.456C29.536,17.424 29.552,17.408 29.584,17.408L32.08,17.408C32.128,17.408 32.16,17.376 32.16,17.328L32.16,16.64C32.16,16.592 32.128,16.56 32.08,16.56L28.672,16.56C28.624,16.56 28.592,16.592 28.592,16.64L28.592,21.92Z" style="fill:rgb(0,68,85);fill-rule:nonzero;"/>
    <path d="M37.131,22C37.187,22 37.219,21.952 37.187,21.896L36.043,19.68C36.667,19.448 37.075,18.896 37.075,18.184C37.075,17.224 36.339,16.56 35.339,16.56L33.235,16.56C33.187,16.56 33.155,16.592 33.155,16.64L33.155,21.92C33.155,21.968 33.187,22 33.235,22L34.019,22C34.067,22 34.099,21.968 34.099,21.92L34.099,19.848C34.099,19.816 34.115,19.8 34.147,19.8L35.083,19.8L36.123,21.92C36.147,21.976 36.179,22 36.243,22L37.131,22ZM35.307,18.952L34.147,18.952C34.115,18.952 34.099,18.936 34.099,18.904L34.099,17.456C34.099,17.424 34.115,17.408 34.147,17.408L35.307,17.408C35.803,17.408 36.139,17.712 36.139,18.184C36.139,18.648 35.803,18.952 35.307,18.952Z" style="fill:rgb(0,68,85);fill-rule:nonzero;"/>
    <path d="M38.069,20.776C38.349,21.64 39.053,22.088 40.013,22.088C40.949,22.088 41.669,21.6 41.933,20.752C42.021,20.48 42.061,20.008 42.061,19.56L42.061,19.088C42.061,19.04 42.029,19.008 41.981,19.008L40.181,19.008C40.133,19.008 40.1,19.04 40.1,19.088L40.1,19.728C40.1,19.776 40.133,19.808 40.181,19.808L41.077,19.808C41.109,19.808 41.125,19.824 41.125,19.856C41.125,20.168 41.093,20.392 41.036,20.56C40.893,21 40.484,21.24 40.005,21.24C39.453,21.24 39.133,20.968 38.981,20.528C38.917,20.328 38.885,20.048 38.885,19.28C38.885,18.504 38.917,18.232 38.981,18.032C39.133,17.592 39.453,17.32 40.005,17.32C40.533,17.32 40.861,17.56 41.1,17.992C41.117,18.024 41.157,18.048 41.205,18.032L41.877,17.736C41.917,17.712 41.925,17.664 41.908,17.624C41.685,17.016 41.029,16.472 40.013,16.472C39.053,16.472 38.349,16.92 38.069,17.784C37.957,18.12 37.925,18.424 37.925,19.28C37.925,20.136 37.957,20.44 38.069,20.776Z" style="fill:rgb(0,68,85);fill-rule:nonzero;"/>
    <path d="M44.974,22C45.022,22 45.054,21.968 45.054,21.92L45.054,19.776L46.63,16.64C46.646,16.6 46.63,16.56 46.566,16.56L45.79,16.56C45.734,16.56 45.702,16.584 45.678,16.64L44.606,18.752L44.582,18.752L43.518,16.64C43.494,16.584 43.454,16.56 43.406,16.56L42.598,16.56C42.542,16.56 42.518,16.6 42.534,16.64L44.11,19.776L44.11,21.92C44.11,21.968 44.142,22 44.19,22L44.974,22Z" style="fill:rgb(0,68,85);fill-rule:nonzero;"/>
</svg>
