<?xml version="1.0" encoding="UTF-8" standalone="no"?>
<!DOCTYPE svg PUBLIC "-//W3C//DTD SVG 1.1//EN" "http://www.w3.org/Graphics/SVG/1.1/DTD/svg11.dtd">
<svg width="100%" height="100%" viewBox="0 0 510 106" version="1.1" xmlns="http://www.w3.org/2000/svg" xmlns:xlink="http://www.w3.org/1999/xlink" xml:space="preserve" xmlns:serif="http://www.serif.com/" style="fill-rule:evenodd;clip-rule:evenodd;stroke-linejoin:round;stroke-miterlimit:2;">
    <path d="M196.3,40C185.1,36.1 178.4,34.6 171.8,34.6C164.9,34.6 159.9,37.1 159.9,40.1C159.9,49.2 198.9,47.2 198.9,68.2C198.9,79.7 187.4,85.2 170.2,85.2C156.7,85.2 150,82.5 142.3,79.4L142.3,66.5C153.4,72.2 160.2,74.3 168.7,74.3C176.1,74.3 180.5,70.9 180.5,67.3C180.5,57.4 141.7,61.1 141.7,39.5C141.7,29.1 152.3,23.6 170.2,23.6C178.8,23.6 186.6,25 196.4,28.3L196.3,40Z" style="fill:rgb(0,60,101);fill-rule:nonzero;"/>
    <rect x="213.2" y="24.5" width="16.3" height="60" style="fill:rgb(0,60,101);fill-rule:nonzero;"/>
    <path d="M263.2,84.5L246.3,84.5L246.3,24.5L261.8,24.5L298.3,62L298.3,24.4L314.6,24.4L314.6,84.4L301,84.4L263.2,45L263.2,84.5Z" style="fill:rgb(0,60,101);fill-rule:nonzero;"/>
    <path d="M446.8,84.5L395,84.5L395,24.5L446.9,24.5L446.9,34.9L411,34.9L411,48.3L443.2,48.3L443.2,58.9L411,58.9L411,73.9L446.7,73.9L446.7,84.5L446.8,84.5Z" style="fill:rgb(0,60,101);fill-rule:nonzero;"/>
    <path d="M509.7,34.9L473.5,34.9L473.5,49L505.9,49L505.9,59.6L473.5,59.6L473.5,84.5L457.4,84.5L457.4,24.5L509.7,24.5L509.7,34.9Z" style="fill:rgb(0,60,101);fill-rule:nonzero;"/>
    <path d="M109.3,52.5C109.3,76.3 98.6,105 54.6,105C10.6,105 0,76.3 0,52.5C0,28.7 10.7,0 54.7,0C98.7,0 109.3,28.8 109.3,52.5ZM51.1,96.3C52.3,96.3 53.4,96.4 54.6,96.4C93.7,96.4 103.2,70.8 103.2,49.6C103.2,29.5 94.6,5.4 60.2,3L58.1,8.7C56.9,8.7 55.8,8.6 54.5,8.6C15.5,8.7 6,34.3 6,55.5C6,75.6 14.6,99.7 49,102.1L51.1,96.3Z" style="fill:rgb(0,60,101);fill-rule:nonzero;"/>
    <path d="M96.2,52.5C96.2,70.1 88.1,91.4 54.7,91.4C21.3,91.4 13.1,70.1 13.1,52.5C13.1,34.9 21.2,13.6 54.6,13.6C88,13.6 96.2,35 96.2,52.5ZM53.2,22.4C26.7,23 20.2,40.8 20.2,55.5C20.2,70.2 26.8,88.3 53.9,88.6L56,82.7C82.5,82.1 89,64.3 89,49.6C89,34.9 82.4,16.8 55.3,16.5L53.2,22.4Z" style="fill:rgb(0,60,101);fill-rule:nonzero;"/>
    <path d="M58.2,76.9L61.6,67.4C64.4,59.7 62.8,54.7 54.6,52.5C46.4,50.3 44.8,45.3 47.6,37.6L51,28.1C52.1,28 53.3,28 54.5,28C76,28 81.3,41.4 81.3,52.5C81.4,63 76.8,75.5 58.2,76.9Z" style="fill:rgb(0,60,101);fill-rule:nonzero;"/>
    <path d="M362.9,84.5L362.9,35.1L386.7,35.1L386.7,24.5L322.7,24.5L322.7,35.1L346.7,35.1L346.7,84.5L362.9,84.5Z" style="fill:rgb(0,60,101);fill-rule:nonzero;"/>
</svg>
