<?xml version="1.0" encoding="UTF-8"?><svg id="Layer_2" xmlns="http://www.w3.org/2000/svg" viewBox="0 0 176.27 32.49"><defs><style>.cls-1{stroke-width:0px;}</style></defs><g id="Logo"><path class="cls-1" d="m174.29,2.53c0-.5-.36-.87-1.01-.87h-1.39v3.17h.51v-1.24h.88c.31,0,.46.13.46.4v.84h.51v-.83c0-.51-.18-.67-.6-.67.35-.05.64-.34.64-.8Zm-1.22.66h-.67v-1.11h.67c.45,0,.71.13.71.57,0,.36-.28.54-.71.54Z"/><path class="cls-1" d="m172.98,0c-1.81,0-3.29,1.48-3.29,3.29s1.48,3.29,3.29,3.29,3.29-1.48,3.29-3.29-1.48-3.29-3.29-3.29Zm0,6.16c-1.58,0-2.85-1.29-2.85-2.87s1.27-2.87,2.85-2.87,2.85,1.29,2.85,2.87-1.27,2.87-2.85,2.87Z"/><rect class="cls-1" x="35.56" y=".36" width="4.35" height="4.67"/><rect class="cls-1" x="35.79" y="9.15" width="3.89" height="22.88"/><path class="cls-1" d="m64.87,17.39c0-4.67-3.07-8.69-9.11-8.69-5.08,0-8.83,2.84-9.11,7h3.89c.27-2.47,2.47-3.71,5.03-3.71h.32c3.16,0,5.08,1.97,5.08,5.4v.78l-6.59.55c-3.66.27-8.19,1.83-8.19,7,0,3.89,3.2,6.77,7.46,6.77,3.75,0,6.64-2.06,7.55-4.12,0,.55.05,2.56.23,3.66h3.66c-.23-1.6-.23-3.66-.23-5.03v-9.61h0Zm-3.89,6.41c0,2.97-3.57,5.4-6.5,5.4h-.41c-2.29,0-3.98-1.56-3.98-3.66,0-2.24,2.01-3.61,4.9-3.84l5.99-.46s0,2.56,0,2.56Z"/><path class="cls-1" d="m83.12,8.69c-3.71,0-6.22,1.65-7.55,3.89v-3.43h-3.89v22.88h3.89v-12.36c0-4.53,2.75-7.69,6.54-7.69h.37c3.39,0,4.9,2.1,4.9,5.77v14.28h3.89v-15.19c0-5.03-3.11-8.15-8.15-8.15Z"/><path class="cls-1" d="m107.46,8.69c-6.09,0-10.8,4.8-10.8,11.9s4.71,11.9,10.8,11.9,10.84-4.8,10.84-11.9-4.76-11.9-10.84-11.9Zm.23,20.5h-.41c-3.84,0-6.73-3.16-6.73-8.6s2.88-8.6,6.73-8.6h.41c3.84,0,6.73,3.16,6.73,8.6s-2.88,8.6-6.73,8.6Z"/><path class="cls-1" d="m140.13,12.49c-1.24-2.2-4.16-3.8-7.28-3.8-5.81,0-10.3,4.44-10.3,11.9s4.16,11.9,9.98,11.9c3.11,0,6.36-1.6,7.6-3.8v3.34h3.89V0h-3.89s0,12.49,0,12.49Zm-6.77,16.7h-.32c-3.93,0-6.54-3.29-6.54-8.6s2.61-8.6,6.54-8.6h.32c3.84,0,6.77,3.29,6.77,8.6s-2.93,8.6-6.77,8.6Z"/><path class="cls-1" d="m160.13,8.69c-5.35,0-10.48,3.89-10.48,11.85s4.9,11.94,10.57,11.94c4.71,0,8.56-2.56,9.43-7.14h-3.89c-.6,2.61-2.7,3.84-5.22,3.84h-.37c-3.11,0-6.45-2.42-6.64-8.05h16.15v-2.29c0-5.95-3.71-10.16-9.56-10.16h.01Zm-6.41,9.29c.78-4.53,3.66-5.99,6.22-5.99h.37c2.98,0,5.31,2.01,5.49,5.99h-12.08Z"/><polygon class="cls-1" points="17.95 22.96 19.99 28.07 30.9 .23 26.55 .23 17.95 22.96"/><polygon class="cls-1" points="0 .23 13.09 32.26 17.21 32.26 4.35 .23 0 .23"/></g></svg>